<mxfile host="app.diagrams.net" agent="Mozilla/5.0 (Macintosh; Intel Mac OS X 10_15_7) AppleWebKit/537.36 (KHTML, like Gecko) Chrome/132.0.0.0 Safari/537.36" version="26.0.10">
  <diagram name="第 1 页" id="ZY_jJOZAlf0_85PVZZcB">
    <mxGraphModel dx="1735" dy="958" grid="1" gridSize="10" guides="1" tooltips="1" connect="1" arrows="1" fold="1" page="1" pageScale="1" pageWidth="827" pageHeight="1169" math="0" shadow="0">
      <root>
        <mxCell id="0" />
        <mxCell id="1" parent="0" />
        <mxCell id="8GY0eB6IEbV2eq13qz32-1" value="Chicken keeper" style="shape=umlActor;verticalLabelPosition=bottom;verticalAlign=top;html=1;outlineConnect=0;fillColor=#f5f5f5;fontColor=#333333;strokeColor=#666666;" vertex="1" parent="1">
          <mxGeometry x="70" y="370" width="40" height="60" as="geometry" />
        </mxCell>
        <mxCell id="8GY0eB6IEbV2eq13qz32-4" value="activtiy_level" style="ellipse;whiteSpace=wrap;html=1;" vertex="1" parent="1">
          <mxGeometry x="462.5" y="70" width="127.5" height="70" as="geometry" />
        </mxCell>
        <mxCell id="8GY0eB6IEbV2eq13qz32-6" value="weight" style="ellipse;whiteSpace=wrap;html=1;" vertex="1" parent="1">
          <mxGeometry x="470" y="250" width="120" height="70" as="geometry" />
        </mxCell>
        <mxCell id="8GY0eB6IEbV2eq13qz32-15" value="egg_prodyction" style="ellipse;whiteSpace=wrap;html=1;" vertex="1" parent="1">
          <mxGeometry x="477.5" y="160" width="120" height="70" as="geometry" />
        </mxCell>
        <mxCell id="8GY0eB6IEbV2eq13qz32-16" value="feed_consumption" style="ellipse;whiteSpace=wrap;html=1;" vertex="1" parent="1">
          <mxGeometry x="477.5" y="330" width="122.5" height="70" as="geometry" />
        </mxCell>
        <mxCell id="8GY0eB6IEbV2eq13qz32-19" value="" style="endArrow=classic;html=1;rounded=0;" edge="1" parent="1">
          <mxGeometry width="50" height="50" relative="1" as="geometry">
            <mxPoint x="110" y="410" as="sourcePoint" />
            <mxPoint x="220" y="320" as="targetPoint" />
          </mxGeometry>
        </mxCell>
        <mxCell id="8GY0eB6IEbV2eq13qz32-20" value="&amp;nbsp;simulated generation data" style="ellipse;whiteSpace=wrap;html=1;" vertex="1" parent="1">
          <mxGeometry x="210" y="240" width="120" height="80" as="geometry" />
        </mxCell>
        <mxCell id="8GY0eB6IEbV2eq13qz32-23" value="include" style="endArrow=open;endSize=12;dashed=1;html=1;rounded=0;exitX=1;exitY=0;exitDx=0;exitDy=0;entryX=0.095;entryY=0.667;entryDx=0;entryDy=0;entryPerimeter=0;" edge="1" parent="1" source="8GY0eB6IEbV2eq13qz32-20" target="8GY0eB6IEbV2eq13qz32-4">
          <mxGeometry width="160" relative="1" as="geometry">
            <mxPoint x="450" y="440" as="sourcePoint" />
            <mxPoint x="490" y="250" as="targetPoint" />
          </mxGeometry>
        </mxCell>
        <mxCell id="8GY0eB6IEbV2eq13qz32-24" value="include" style="endArrow=open;endSize=12;dashed=1;html=1;rounded=0;" edge="1" parent="1" target="8GY0eB6IEbV2eq13qz32-15">
          <mxGeometry width="160" relative="1" as="geometry">
            <mxPoint x="330" y="260" as="sourcePoint" />
            <mxPoint x="450" y="140" as="targetPoint" />
          </mxGeometry>
        </mxCell>
        <mxCell id="8GY0eB6IEbV2eq13qz32-25" value="include" style="endArrow=open;endSize=12;dashed=1;html=1;rounded=0;" edge="1" parent="1" target="8GY0eB6IEbV2eq13qz32-6">
          <mxGeometry width="160" relative="1" as="geometry">
            <mxPoint x="330" y="260" as="sourcePoint" />
            <mxPoint x="452" y="233" as="targetPoint" />
          </mxGeometry>
        </mxCell>
        <mxCell id="8GY0eB6IEbV2eq13qz32-26" value="include" style="endArrow=open;endSize=12;dashed=1;html=1;rounded=0;entryX=0;entryY=0;entryDx=0;entryDy=0;exitX=0.939;exitY=0.329;exitDx=0;exitDy=0;exitPerimeter=0;" edge="1" parent="1" source="8GY0eB6IEbV2eq13qz32-20" target="8GY0eB6IEbV2eq13qz32-16">
          <mxGeometry width="160" relative="1" as="geometry">
            <mxPoint x="350" y="280" as="sourcePoint" />
            <mxPoint x="442" y="293" as="targetPoint" />
          </mxGeometry>
        </mxCell>
        <mxCell id="8GY0eB6IEbV2eq13qz32-28" value="hardware data" style="ellipse;whiteSpace=wrap;html=1;" vertex="1" parent="1">
          <mxGeometry x="220" y="480" width="120" height="80" as="geometry" />
        </mxCell>
        <mxCell id="8GY0eB6IEbV2eq13qz32-29" value="" style="endArrow=classic;html=1;rounded=0;entryX=0;entryY=0;entryDx=0;entryDy=0;" edge="1" parent="1" source="8GY0eB6IEbV2eq13qz32-1" target="8GY0eB6IEbV2eq13qz32-28">
          <mxGeometry width="50" height="50" relative="1" as="geometry">
            <mxPoint x="170" y="380" as="sourcePoint" />
            <mxPoint x="220" y="330" as="targetPoint" />
          </mxGeometry>
        </mxCell>
        <mxCell id="8GY0eB6IEbV2eq13qz32-30" value="humidity" style="ellipse;whiteSpace=wrap;html=1;" vertex="1" parent="1">
          <mxGeometry x="481.5" y="420" width="114.5" height="70" as="geometry" />
        </mxCell>
        <mxCell id="8GY0eB6IEbV2eq13qz32-31" value="temperature" style="ellipse;whiteSpace=wrap;html=1;" vertex="1" parent="1">
          <mxGeometry x="481.5" y="514.5" width="121" height="70" as="geometry" />
        </mxCell>
        <mxCell id="8GY0eB6IEbV2eq13qz32-32" value="include" style="endArrow=open;endSize=12;dashed=1;html=1;rounded=0;entryX=0;entryY=0.5;entryDx=0;entryDy=0;" edge="1" parent="1" target="8GY0eB6IEbV2eq13qz32-30">
          <mxGeometry width="160" relative="1" as="geometry">
            <mxPoint x="340" y="490" as="sourcePoint" />
            <mxPoint x="505" y="350" as="targetPoint" />
          </mxGeometry>
        </mxCell>
        <mxCell id="8GY0eB6IEbV2eq13qz32-33" value="include" style="endArrow=open;endSize=12;dashed=1;html=1;rounded=0;entryX=0;entryY=0;entryDx=0;entryDy=0;exitX=0.963;exitY=0.293;exitDx=0;exitDy=0;exitPerimeter=0;" edge="1" parent="1" source="8GY0eB6IEbV2eq13qz32-28" target="8GY0eB6IEbV2eq13qz32-31">
          <mxGeometry width="160" relative="1" as="geometry">
            <mxPoint x="342" y="472" as="sourcePoint" />
            <mxPoint x="492" y="465" as="targetPoint" />
          </mxGeometry>
        </mxCell>
        <mxCell id="8GY0eB6IEbV2eq13qz32-34" value="api data&lt;div&gt;&lt;br&gt;&lt;/div&gt;" style="ellipse;whiteSpace=wrap;html=1;" vertex="1" parent="1">
          <mxGeometry x="210" y="790" width="120" height="80" as="geometry" />
        </mxCell>
        <mxCell id="8GY0eB6IEbV2eq13qz32-36" value="" style="endArrow=classic;html=1;rounded=0;entryX=0;entryY=0;entryDx=0;entryDy=0;" edge="1" parent="1" target="8GY0eB6IEbV2eq13qz32-34">
          <mxGeometry width="50" height="50" relative="1" as="geometry">
            <mxPoint x="110" y="410" as="sourcePoint" />
            <mxPoint x="180" y="420" as="targetPoint" />
          </mxGeometry>
        </mxCell>
        <mxCell id="8GY0eB6IEbV2eq13qz32-37" value="distance" style="ellipse;whiteSpace=wrap;html=1;" vertex="1" parent="1">
          <mxGeometry x="478.75" y="600" width="120" height="80" as="geometry" />
        </mxCell>
        <mxCell id="8GY0eB6IEbV2eq13qz32-38" value="Movement" style="ellipse;whiteSpace=wrap;html=1;" vertex="1" parent="1">
          <mxGeometry x="482.5" y="700" width="120" height="80" as="geometry" />
        </mxCell>
        <mxCell id="8GY0eB6IEbV2eq13qz32-39" value="include" style="endArrow=open;endSize=12;dashed=1;html=1;rounded=0;entryX=0;entryY=0;entryDx=0;entryDy=0;exitX=0.987;exitY=0.329;exitDx=0;exitDy=0;exitPerimeter=0;" edge="1" parent="1" source="8GY0eB6IEbV2eq13qz32-28" target="8GY0eB6IEbV2eq13qz32-37">
          <mxGeometry width="160" relative="1" as="geometry">
            <mxPoint x="352" y="482" as="sourcePoint" />
            <mxPoint x="502" y="475" as="targetPoint" />
          </mxGeometry>
        </mxCell>
        <mxCell id="8GY0eB6IEbV2eq13qz32-40" value="include" style="endArrow=open;endSize=12;dashed=1;html=1;rounded=0;entryX=0;entryY=0;entryDx=0;entryDy=0;fontStyle=1" edge="1" parent="1" target="8GY0eB6IEbV2eq13qz32-38">
          <mxGeometry width="160" relative="1" as="geometry">
            <mxPoint x="340" y="500" as="sourcePoint" />
            <mxPoint x="492" y="465" as="targetPoint" />
          </mxGeometry>
        </mxCell>
        <mxCell id="8GY0eB6IEbV2eq13qz32-42" value="tempeartue" style="ellipse;whiteSpace=wrap;html=1;" vertex="1" parent="1">
          <mxGeometry x="482.5" y="800" width="120" height="80" as="geometry" />
        </mxCell>
        <mxCell id="8GY0eB6IEbV2eq13qz32-44" value="humidity" style="ellipse;whiteSpace=wrap;html=1;" vertex="1" parent="1">
          <mxGeometry x="490" y="930" width="120" height="80" as="geometry" />
        </mxCell>
        <mxCell id="8GY0eB6IEbV2eq13qz32-45" value="include" style="endArrow=open;endSize=12;dashed=1;html=1;rounded=0;entryX=0.044;entryY=0.632;entryDx=0;entryDy=0;fontStyle=1;entryPerimeter=0;" edge="1" parent="1" source="8GY0eB6IEbV2eq13qz32-34" target="8GY0eB6IEbV2eq13qz32-42">
          <mxGeometry width="160" relative="1" as="geometry">
            <mxPoint x="350" y="510" as="sourcePoint" />
            <mxPoint x="510" y="722" as="targetPoint" />
          </mxGeometry>
        </mxCell>
        <mxCell id="8GY0eB6IEbV2eq13qz32-46" value="include" style="endArrow=open;endSize=12;dashed=1;html=1;rounded=0;entryX=0.089;entryY=0.291;entryDx=0;entryDy=0;fontStyle=1;entryPerimeter=0;exitX=1;exitY=0.5;exitDx=0;exitDy=0;" edge="1" parent="1" source="8GY0eB6IEbV2eq13qz32-34" target="8GY0eB6IEbV2eq13qz32-44">
          <mxGeometry width="160" relative="1" as="geometry">
            <mxPoint x="330" y="860" as="sourcePoint" />
            <mxPoint x="485" y="861" as="targetPoint" />
          </mxGeometry>
        </mxCell>
      </root>
    </mxGraphModel>
  </diagram>
</mxfile>
